<?xml version="1.0" encoding="UTF-8" standalone="no"?>
<svg
   xmlns="http://www.w3.org/2000/svg"
   viewBox="0 0 358.07916 179.3223"
   version="1.1">
  <path
     style="fill:#1f2126;fill-opacity:1;fill-rule:evenodd;stroke:none;stroke-width:1.0000006;stroke-miterlimit:4;stroke-dasharray:none"
     d="m 237.5,159.64501 c -7.74144,-10.92954 -3.43862,-35.60529 -16.22825,-39.13134 -4.68308,1.25868 -13.81363,-3.77216 -14.43347,3.23267 -1.29405,5.74962 -5.86081,11.59901 -1.76992,17.18449 1.41655,8.56775 10.63364,11.05933 16.43164,16.21418 4.78615,1.52819 11.95306,5.69525 16,2.5 z m 86,-46.73 c 14.55943,5.98818 0.0333,10.16492 0,0 z m -320.5000004,55.23 c 17.4685994,-1.24141 35.3204834,0.35949 52.2441794,-4.92276 7.206654,-1.61901 14.8079,-2.42411 19.904248,-8.39598 6.117191,-4.89375 12.234383,-9.78751 18.351575,-14.68126 -2.661302,7.31309 -5.361992,30.20004 1.523678,28.60565 3.955522,-7.70459 3.171771,8.5515 7.06177,9.46808 7.45447,0.47576 34.89754,4.68587 21.66455,-7.26123 -17.62811,1.79995 -14.76745,-29.61448 -4.72772,-33.74683 14.24803,-2.67312 26.59727,-14.79762 35.6267,-22.87736 5.28367,5.6039 10.56735,11.20779 15.85102,16.81169 1.78914,19.24508 25.20115,23.43009 37.52771,35.01123 8.26607,6.70743 18.22906,6.25376 27.75906,3.65383 7.67463,-4.08469 7.64626,6.10295 11.6047,7.28881 6.20284,-0.15129 12.40569,-0.30258 18.60853,-0.45387 -0.61301,-9.33069 -15.56083,-7.87961 -12.89053,-19.16264 -1.16694,-8.40406 -2.35296,-25.12848 11.10904,-20.34401 12.17587,2.52282 25.29825,7.66605 30.51789,19.79595 3.16271,2.62033 5.98424,15.72326 9.46304,8.63148 2.12021,4.45497 6.50484,7.8397 12.77635,5.272 5.94253,-8.55203 -0.65794,-26.33382 -8.92147,-34.47159 -10.34434,-11.16778 -9.13897,-10.59492 0.64284,-2.6574 10.64597,8.36148 21.40052,16.58329 32.05284,24.93621 14.40457,5.93348 24.19524,-15.14931 11.37963,-23.05485 -11.41923,-13.41044 -25.484,-26.11517 -29.21459,-44.091143 -1.59187,-16.521323 12.71282,-28.528579 13.30371,-44.541504 1.49281,-12.81564 -7.93756,5.03305 -11.87031,7.71545 -4.44948,5.15735 -8.89896,10.3147 -13.34844,15.47205 -4.46499,-12.900007 -12.31124,-24.027687 -19.5,-35.5 -9.43926,-8.608846 -7.87328,6.805325 -8.91533,12.479798 C 281.89709,59.249152 267.31091,34.419939 259.36621,32.978021 240.77493,20.794035 221.45285,8.5995962 200.07959,1.9960881 168.73782,-4.9338919 136.04777,7.0159392 110.49707,24.93609 88.240741,40.465859 75.490277,67.383598 77.149604,94.438723 76.195648,115.11507 72.812491,141.64661 50.524963,150.06623 34.187543,156.54317 16.623289,159.02191 0,164.64501 c 0.0333627,1.7202 2.0479783,2.43674 2.9999996,3.5 z"
     id="aardvark">
  </path>
</svg>
